<svg width="444" height="63" viewBox="0 0 444 63" fill="none" xmlns="http://www.w3.org/2000/svg">
<g clip-path="url(#clip0_90_4622)">
<path d="M10.3513 58.0912C10.3513 56.9798 9.9699 56.0427 9.21807 55.2691C8.46624 54.4955 7.55097 54.1141 6.48316 54.1141C5.51341 54.1141 4.67441 54.4192 3.96617 55.0403C3.26882 55.6505 2.83298 56.3914 2.66953 57.274H1.63441V54.2776H0V61.9048H1.63441V58.7994H2.66953C2.83298 59.7256 3.26882 60.5101 3.96617 61.1312C4.66351 61.7523 5.50251 62.0683 6.48316 62.0683C7.55097 62.0683 8.46624 61.6869 9.21807 60.9133C9.9699 60.1506 10.3513 59.2026 10.3513 58.0912ZM8.71685 58.0912C8.71685 58.8103 8.49893 59.4096 8.06309 59.8781C7.61635 60.3576 7.09334 60.5973 6.48316 60.5973C5.87298 60.5973 5.34997 60.3576 4.91412 59.8781C4.46738 59.4096 4.24946 58.8103 4.24946 58.0912C4.24946 57.3721 4.46738 56.7728 4.91412 56.2933C5.34997 55.8248 5.87298 55.5851 6.48316 55.5851C7.09334 55.5851 7.61635 55.8248 8.06309 56.2933C8.49893 56.7728 8.71685 57.3721 8.71685 58.0912Z" fill="#46466E"/>
<path d="M12.9602 54.2781V61.9053H14.5946V59.3992H16.1745C16.9591 59.3992 17.6128 59.1486 18.1249 58.6583C18.6371 58.168 18.8986 57.5578 18.8986 56.8386C18.8986 56.1086 18.6371 55.5093 18.1249 55.0081C17.6019 54.5178 16.9591 54.2781 16.1745 54.2781H12.9602ZM16.1201 55.749C16.4469 55.749 16.7193 55.858 16.9373 56.065C17.1552 56.2721 17.2641 56.5336 17.2641 56.8386C17.2641 57.1437 17.1552 57.4052 16.9373 57.6123C16.7193 57.8193 16.4469 57.9283 16.1201 57.9283H14.5946V55.749H16.1201Z" fill="#46466E"/>
<path d="M28.2617 61.9053V54.2781H26.8452L23.0861 59.1268V54.2781H21.4517V61.9053H22.8681L26.6273 57.0566V61.9053H28.2617Z" fill="#46466E"/>
<path d="M30.3245 60.4343V63.4852H31.9589V61.9053H36.5352V63.4852H38.1696V60.4343H37.2435V54.2781H31.9589V56.6207C31.9589 57.1328 31.9153 57.6123 31.8281 58.059C31.741 58.5166 31.6429 58.8762 31.5448 59.1486C31.4359 59.4101 31.316 59.6498 31.1744 59.8786C31.0327 60.0966 30.9455 60.2382 30.8911 60.3036C30.8257 60.3581 30.793 60.4126 30.7603 60.4343H30.3245ZM33.5933 56.6207V55.749H35.6091V60.4343H32.3947L32.5255 60.3036C32.6017 60.2164 32.6998 60.0748 32.8197 59.8678C32.9395 59.6607 33.0485 59.421 33.1683 59.1486C33.2882 58.8762 33.3863 58.5057 33.4625 58.059C33.5497 57.6123 33.5933 57.1328 33.5933 56.6207Z" fill="#46466E"/>
<path d="M47.3115 61.9053V54.2781H45.895L42.1359 59.1268V54.2781H40.5015V61.9053H41.918L45.6771 57.0566V61.9053H47.3115Z" fill="#46466E"/>
<path d="M51.8817 54.2781H50.2473V56.6207C50.2473 57.536 50.487 58.2442 50.9665 58.7455C51.4568 59.2576 52.1214 59.5082 52.9713 59.5082C53.7014 59.5082 54.3007 59.3665 54.7692 59.0723V61.9053H56.4036V54.2781H54.7692V57.4924L54.5839 57.6341C54.4641 57.7212 54.2789 57.8084 54.0282 57.9065C53.7776 57.9936 53.5161 58.0372 53.2437 58.0372C52.8079 58.0372 52.4701 57.9174 52.2304 57.6776C52.0016 57.427 51.8817 57.0784 51.8817 56.6207V54.2781Z" fill="#46466E"/>
<path d="M65.9856 54.2781H64.3512V57.329H61.0824V54.2781H59.448V61.9053H61.0824V58.7999H64.3512V61.9053H65.9856V54.2781Z" fill="#46466E"/>
<path d="M72.9549 58.691H71.1026L72.0288 56.1849L72.9549 58.691ZM73.4997 60.1075L74.1535 61.9053H75.8969L72.9004 54.2781H71.1571L68.1606 61.9053H69.904L70.5578 60.1075H73.4997Z" fill="#46466E"/>
<path d="M83.0223 54.2781H81.3879V61.9053H83.0223V59.7261L84.003 58.6365L86.2367 61.9053H88.1435L85.0926 57.4379L87.9256 54.2781H86.0188L83.0223 57.6014V54.2781Z" fill="#46466E"/>
<path d="M91.4614 58.0912C91.4614 57.3939 91.7011 56.7946 92.1805 56.3151C92.649 55.8248 93.2265 55.5851 93.913 55.5851C94.5994 55.5851 95.1769 55.8248 95.6454 56.3151C96.1249 56.7946 96.3646 57.3939 96.3646 58.0912C96.3646 58.7994 96.1249 59.3878 95.6454 59.8673C95.1769 60.3576 94.5994 60.5973 93.913 60.5973C93.2265 60.5973 92.649 60.3576 92.1805 59.8673C91.7011 59.3878 91.4614 58.7994 91.4614 58.0912ZM89.7725 58.0912C89.7725 59.1808 90.1756 60.1288 90.971 60.9024C91.7664 61.676 92.7471 62.0683 93.913 62.0683C95.0788 62.0683 96.0595 61.676 96.8549 60.9024C97.6503 60.1288 98.0535 59.1808 98.0535 58.0912C98.0535 56.9907 97.6503 56.0536 96.8549 55.28C96.0595 54.5064 95.0788 54.1141 93.913 54.1141C92.7471 54.1141 91.7664 54.5064 90.971 55.28C90.1756 56.0536 89.7725 56.9907 89.7725 58.0912Z" fill="#46466E"/>
<path d="M104.748 57.6014L102.133 54.2781H100.662V61.9053H102.297V56.8386L104.748 59.944L107.2 56.8169V61.9053H108.834V54.2781H107.385L104.748 57.6014Z" fill="#46466E"/>
<path d="M118.359 54.2781H111.876V61.9053H113.511V55.749H116.725V61.9053H118.359V54.2781Z" fill="#46466E"/>
<path d="M125.33 58.691H123.478L124.404 56.1849L125.33 58.691ZM125.875 60.1075L126.528 61.9053H128.272L125.275 54.2781H123.532L120.536 61.9053H122.279L122.933 60.1075H125.875Z" fill="#46466E"/>
<path d="M136.983 54.2781H135.349V57.329H132.08V54.2781H130.446V61.9053H132.08V58.7999H135.349V61.9053H136.983V54.2781Z" fill="#46466E"/>
<path d="M141.662 54.2781H140.028V61.9053H141.662V54.2781Z" fill="#46466E"/>
<path d="M150.373 54.2781H146.995C146.232 54.2781 145.611 54.5178 145.121 54.9972C144.63 55.4766 144.38 56.0759 144.38 56.7842C144.38 57.0893 144.434 57.3726 144.521 57.645C144.62 57.9174 144.728 58.1244 144.859 58.2769C144.979 58.4295 145.11 58.5711 145.273 58.7019C145.426 58.8326 145.535 58.9198 145.6 58.9525C145.655 58.9743 145.709 59.007 145.742 59.0179L144.107 61.9053H145.851L147.322 59.2358H148.738V61.9053H150.373V54.2781ZM146.014 56.7842C146.014 56.4791 146.112 56.2394 146.308 56.0432C146.505 55.8471 146.755 55.749 147.049 55.749H148.738V57.7648H147.049C146.755 57.7648 146.505 57.6667 146.308 57.4815C146.112 57.2963 146.014 57.0566 146.014 56.7842Z" fill="#46466E"/>
<path d="M4.98113 1.00012H0V36.975H4.98113V23.6287C4.98113 21.3709 5.54273 19.5897 6.66593 18.3353C7.78912 17.081 9.32741 16.4287 11.232 16.4287C12.8679 16.4287 14.2353 17.0308 15.3341 18.1848C16.4329 19.3639 16.9944 20.844 16.9944 22.6252V37.0001H22V22.6252C22 19.3137 21.0966 16.7047 19.2897 14.7479C17.4828 12.7911 15.1143 11.8127 12.2331 11.8127C11.4029 11.8127 10.5727 11.913 9.76693 12.1388C8.93674 12.3646 8.27747 12.6155 7.74029 12.8914C7.20311 13.1674 6.69034 13.4684 6.22642 13.8196C5.76249 14.1709 5.44506 14.4217 5.29856 14.5722C5.15205 14.7228 5.02997 14.8231 4.98113 14.8984V1.00012Z" fill="#F0145A"/>
<path d="M33.135 1H28V36.945H33.135V1Z" fill="#323264"/>
<path d="M63.4223 26.4178L63.679 23.8503C63.679 20.4099 62.5493 17.5343 60.2386 15.2235C57.9278 12.9128 55.0522 11.7831 51.6118 11.7831C48.1713 11.7831 45.193 13.0155 42.7282 15.4803C40.2634 17.9451 39.031 20.872 39.031 24.3638C39.031 27.9583 40.3148 31.0394 42.8309 33.6069C45.3471 36.1744 48.3767 37.4581 51.8685 37.4581C53.2036 37.4581 54.436 37.2527 55.6684 36.8933C56.9008 36.4825 57.9278 36.0717 58.6467 35.6609C59.417 35.1987 60.1872 34.6852 60.8548 34.1204C61.5223 33.5555 61.9845 33.1447 62.1899 32.888C62.3953 32.6312 62.5493 32.4772 62.652 32.3231L59.3143 28.9853L58.544 29.961C58.0305 30.5772 57.1576 31.1934 55.9252 31.861C54.6414 32.5285 53.3063 32.8366 51.8685 32.8366C49.8659 32.8366 48.1713 32.2204 46.7335 30.9367C45.2957 29.6529 44.4228 28.1637 44.166 26.4178H63.4223ZM51.6118 16.1478C53.5117 16.1478 55.0522 16.7127 56.336 17.791C57.5684 18.9207 58.3386 20.3072 58.6467 22.0531H44.3714C44.8336 20.3072 45.6552 18.9207 46.9389 17.791C48.1713 16.7127 49.7632 16.1478 51.6118 16.1478Z" fill="#323264"/>
<path d="M87.3711 35.4554C87.3711 37.7148 86.7035 39.5634 85.3171 41.0012C83.982 42.3877 82.2874 43.1066 80.1821 43.1066C79.2578 43.1066 78.3335 42.9525 77.4605 42.6958C76.5876 42.439 75.92 42.1309 75.3552 41.7715C74.7903 41.412 74.2768 41.0526 73.7633 40.5904C73.3012 40.1283 72.9931 39.8202 72.839 39.6661C72.685 39.5121 72.5823 39.358 72.4796 39.2553L69.1418 42.5931L69.5526 43.1066C69.8094 43.466 70.2715 43.9282 70.8877 44.4417C71.5039 44.9039 72.2228 45.4174 73.0444 45.9309C73.866 46.393 74.893 46.8038 76.1768 47.1632C77.4605 47.5227 78.7956 47.7281 80.1821 47.7281C83.6739 47.7281 86.5495 46.5471 88.9629 44.185C91.325 41.7715 92.5061 38.8959 92.5061 35.4041V12.2966H87.3711V14.8641L86.4981 14.0938C85.9333 13.5803 85.0603 13.0668 83.8279 12.5533C82.5955 12.0398 81.2604 11.7831 79.9253 11.7831C76.793 11.7831 74.1228 12.9641 71.812 15.3776C69.5013 17.791 68.3716 20.6666 68.3716 24.1071C68.3716 27.5475 69.5013 30.4231 71.812 32.8366C74.1228 35.25 76.793 36.4311 79.9253 36.4311C80.7983 36.4311 81.6199 36.3284 82.4928 36.123C83.3144 35.8662 83.982 35.6095 84.5468 35.3527C85.1117 35.096 85.6252 34.7879 86.0873 34.4284C86.5495 34.069 86.9089 33.8122 87.0116 33.7095L87.3711 33.3501V35.4554ZM73.5066 24.1071C73.5066 21.9504 74.1741 20.1531 75.5606 18.664C76.947 17.1748 78.5902 16.4046 80.4388 16.4046C82.2874 16.4046 83.9306 17.1748 85.3171 18.664C86.6522 20.1531 87.3711 21.9504 87.3711 24.1071C87.3711 26.2638 86.6522 28.061 85.3171 29.5502C83.9306 31.0393 82.2874 31.8096 80.4388 31.8096C78.5902 31.8096 76.947 31.0393 75.5606 29.5502C74.1741 28.061 73.5066 26.2638 73.5066 24.1071Z" fill="#323264"/>
<path d="M119.309 36.9446V21.0261C119.309 18.4072 118.333 16.1992 116.433 14.4533C114.533 12.656 112.068 11.7831 109.039 11.7831C107.858 11.7831 106.677 11.9371 105.547 12.2452C104.417 12.6047 103.493 12.9641 102.825 13.3749C102.158 13.7857 101.49 14.2479 100.874 14.8127C100.258 15.3262 99.8985 15.6857 99.6931 15.8911C99.539 16.0965 99.385 16.2505 99.2823 16.4046L102.62 19.7423L103.288 18.8694C103.698 18.3045 104.417 17.791 105.496 17.2262C106.574 16.6613 107.755 16.4046 109.039 16.4046C110.528 16.4046 111.76 16.8667 112.736 17.7397C113.712 18.6126 114.174 19.7423 114.174 21.0261L105.188 22.5666C102.979 22.926 101.182 23.799 99.9498 25.1854C98.6661 26.5719 97.9985 28.2664 97.9985 30.2691C97.9985 32.1691 98.8201 33.8123 100.463 35.2501C102.158 36.7392 104.212 37.4581 106.728 37.4581C107.601 37.4581 108.423 37.3554 109.244 37.0987C110.117 36.8933 110.785 36.6365 111.35 36.3798C111.914 36.123 112.428 35.8149 112.89 35.4555C113.352 35.096 113.66 34.8393 113.866 34.7366C114.02 34.5825 114.122 34.4285 114.174 34.3771V36.9446H119.309ZM107.498 32.8366C106.163 32.8366 105.085 32.5285 104.315 31.9123C103.493 31.2961 103.134 30.5772 103.134 29.7556C103.134 28.8827 103.39 28.1124 103.955 27.5475C104.52 26.9827 105.29 26.5719 106.215 26.4178L114.174 25.1341V25.6476C114.174 27.9583 113.609 29.7043 112.428 30.988C111.247 32.2204 109.604 32.8366 107.498 32.8366Z" fill="#323264"/>
<path d="M130.64 1H125.505V36.945H130.64V1Z" fill="#323264"/>
<path d="M153.989 15.1208L153.681 14.7614C153.475 14.556 153.167 14.2992 152.705 13.9398C152.243 13.5803 151.73 13.2722 151.165 12.9128C150.6 12.6047 149.83 12.3479 148.905 12.0912C147.981 11.8858 147.005 11.7831 146.03 11.7831C143.514 11.7831 141.46 12.502 139.816 13.9398C138.122 15.4289 137.3 17.0721 137.3 18.9721C137.3 20.3585 137.608 21.4882 138.224 22.5152C138.841 23.4909 139.611 24.2098 140.587 24.6206C141.511 25.0827 142.538 25.5449 143.616 25.9043C144.695 26.2638 145.67 26.5719 146.646 26.8286C147.57 27.1367 148.34 27.4962 148.957 27.9583C149.573 28.4205 149.881 29.0367 149.881 29.7556C149.881 30.6799 149.522 31.4502 148.854 32.015C148.186 32.5285 147.159 32.8366 145.773 32.8366C144.643 32.8366 143.514 32.5285 142.435 32.015C141.357 31.4502 140.689 30.988 140.33 30.6286C140.022 30.2691 139.765 29.961 139.611 29.7556L136.273 33.0934L136.633 33.5555C136.889 33.8636 137.249 34.2231 137.762 34.6339C138.327 35.096 138.943 35.5068 139.611 35.9176C140.33 36.3284 141.254 36.6879 142.333 36.996C143.411 37.3041 144.592 37.4581 145.773 37.4581C148.495 37.4581 150.754 36.6879 152.448 35.1987C154.143 33.7096 155.016 31.861 155.016 29.7556C155.016 28.3691 154.708 27.1881 154.092 26.2638C153.475 25.2881 152.705 24.5692 151.73 24.1071C150.805 23.5936 149.778 23.1828 148.7 22.8233C147.622 22.4639 146.646 22.1044 145.67 21.899C144.746 21.6423 143.976 21.2315 143.36 20.7693C142.743 20.3072 142.435 19.691 142.435 18.9721C142.435 18.3045 142.743 17.6883 143.411 17.1748C144.027 16.6613 144.9 16.4046 146.03 16.4046C146.851 16.4046 147.673 16.61 148.443 16.9694C149.265 17.3289 149.83 17.637 150.086 17.8937C150.343 18.1505 150.549 18.3559 150.651 18.4586L153.989 15.1208Z" fill="#323264"/>
<path d="M196.957 37H199.629V18.7607H183.857V37H186.511V21.2656H196.957V37ZM209.704 39.6533C209.018 41.5645 207.867 42.5107 206.253 42.5107C205.622 42.5107 204.991 42.3809 204.36 42.1211V44.6074L204.62 44.6816C204.806 44.7559 205.103 44.8301 205.474 44.8857C205.845 44.96 206.234 44.9785 206.643 44.9785C207.96 44.9785 209.055 44.5889 209.927 43.7725C210.78 42.9561 211.597 41.583 212.357 39.6533L220.726 18.7607H217.868L211.986 33.5859L206.086 18.7607H203.229L210.65 37L209.704 39.6533ZM241.618 28.2607C241.618 25.7373 240.765 23.585 239.058 21.8037C237.351 20.0225 235.291 19.1318 232.879 19.1318C232.062 19.1318 231.283 19.2803 230.541 19.54C229.799 19.7998 229.187 20.0967 228.723 20.4121C228.24 20.7461 227.813 21.0986 227.424 21.5068C227.034 21.915 226.774 22.1934 226.663 22.3604C226.552 22.5273 226.459 22.6572 226.422 22.75C226.515 20.1895 227.183 18.167 228.407 16.6826C229.632 15.1982 231.265 14.2334 233.269 13.8252C237.054 13.083 239.466 12.248 240.486 11.3574L239.15 9.26074L238.594 9.59473C238.223 9.83594 237.518 10.1328 236.479 10.4854C235.421 10.8564 234.215 11.1348 232.879 11.3574C226.682 12.4707 223.583 17.2207 223.583 25.6074C223.583 29.3555 224.418 32.2686 226.125 34.3096C227.813 36.3506 230.003 37.3711 232.693 37.3711C235.18 37.3711 237.276 36.499 239.021 34.7363C240.746 32.9922 241.618 30.8213 241.618 28.2607ZM226.422 28.2607C226.422 26.3867 227.034 24.8096 228.259 23.5293C229.483 22.2676 230.968 21.6182 232.693 21.6182C234.4 21.6182 235.885 22.2676 237.109 23.5293C238.334 24.8096 238.965 26.3867 238.965 28.2607C238.965 30.1533 238.334 31.7305 237.109 32.9922C235.885 34.2725 234.4 34.9033 232.693 34.9033C230.968 34.9033 229.483 34.2725 228.259 32.9922C227.034 31.7305 226.422 30.1533 226.422 28.2607ZM248.465 18.7607V24.0859C248.465 27.0732 248.298 29.374 248.001 30.9883C247.704 32.584 247.333 33.623 246.888 34.0684C246.442 34.5137 245.83 34.7363 245.051 34.7363C244.531 34.7363 244.03 34.6064 243.529 34.3652V37.0186L243.789 37.0928C243.938 37.167 244.16 37.2227 244.476 37.2969C244.791 37.3525 245.106 37.3896 245.422 37.3896C246.331 37.3896 247.11 37.2041 247.76 36.833C248.391 36.4619 248.984 35.8125 249.522 34.8848C250.042 33.957 250.45 32.584 250.71 30.8027C250.97 29.0215 251.118 26.7764 251.118 24.1045V21.2471H259.097V37.0186H261.769V18.7793L248.465 18.7607ZM267.836 37H270.489V18.7607H267.836V37ZM267.446 12.6748C267.446 13.1572 267.595 13.5654 267.929 13.8994C268.263 14.2334 268.671 14.3818 269.153 14.3818C269.636 14.3818 270.025 14.2334 270.359 13.8994C270.693 13.5654 270.86 13.1572 270.86 12.6748C270.86 12.1924 270.693 11.8027 270.359 11.4688C270.025 11.1348 269.636 10.9678 269.153 10.9678C268.671 10.9678 268.263 11.1348 267.929 11.4688C267.595 11.8027 267.446 12.1924 267.446 12.6748ZM279.247 31.8789L282.865 28.0752L289.322 37H292.365L284.572 26.1641L291.604 18.7607H288.357L279.247 28.4463V18.7607H276.594V37H279.247V31.8789ZM299.769 26.5537C298.043 26.8506 296.726 27.4629 295.816 28.3906C294.889 29.3184 294.443 30.543 294.443 32.0645C294.443 33.4561 295.056 34.6807 296.299 35.7568C297.542 36.833 299.082 37.3711 300.9 37.3711C301.624 37.3711 302.329 37.2783 303.016 37.0742C303.702 36.8887 304.259 36.666 304.686 36.4062C305.094 36.1465 305.483 35.8682 305.854 35.5342C306.226 35.2002 306.448 34.9775 306.56 34.8477C306.671 34.7178 306.745 34.6064 306.801 34.5322V37H309.454V25.4033C309.454 23.418 308.768 21.748 307.395 20.3936C306.021 19.0576 304.314 18.3711 302.236 18.3711C301.42 18.3711 300.604 18.501 299.824 18.7422C299.045 18.9834 298.414 19.2617 297.932 19.5586C297.449 19.874 296.985 20.2266 296.54 20.6162C296.095 21.0059 295.816 21.2842 295.687 21.4326C295.557 21.5811 295.464 21.7109 295.39 21.8037L297.097 23.5107L297.672 22.8613C298.043 22.416 298.655 21.9707 299.509 21.5254C300.362 21.0801 301.271 20.8574 302.236 20.8574C303.572 20.8574 304.667 21.2842 305.521 22.1191C306.374 22.9727 306.801 24.0674 306.801 25.4033L299.769 26.5537ZM300.9 34.9033C299.713 34.9033 298.767 34.6436 298.099 34.1055C297.431 33.5674 297.097 32.8809 297.097 32.0645C297.097 30.3574 298.247 29.2812 300.529 28.8359L306.801 27.6855V28.8359C306.801 30.6357 306.244 32.1016 305.131 33.2148C304.018 34.3467 302.607 34.9033 300.9 34.9033ZM315.521 37H331.089V41.5645H333.761V34.5322H330.903V18.7607H328.25V34.5322H318.175V18.7607H315.521V37ZM337.936 37H340.589V18.7607H337.936V37ZM337.546 12.6748C337.546 13.1572 337.694 13.5654 338.028 13.8994C338.362 14.2334 338.771 14.3818 339.253 14.3818C339.735 14.3818 340.125 14.2334 340.459 13.8994C340.793 13.5654 340.96 13.1572 340.96 12.6748C340.96 12.1924 340.793 11.8027 340.459 11.4688C340.125 11.1348 339.735 10.9678 339.253 10.9678C338.771 10.9678 338.362 11.1348 338.028 11.4688C337.694 11.8027 337.546 12.1924 337.546 12.6748ZM342.704 12.9902C342.704 13.4727 342.853 13.8809 343.187 14.2148C343.521 14.5488 343.929 14.6973 344.411 14.6973C344.894 14.6973 345.283 14.5488 345.617 14.2148C345.951 13.8809 346.118 13.4727 346.118 12.9902C346.118 12.5078 345.951 12.1182 345.617 11.7842C345.283 11.4502 344.894 11.2832 344.411 11.2832C343.929 11.2832 343.521 11.4502 343.187 11.7842C342.853 12.1182 342.704 12.5078 342.704 12.9902ZM349.922 12.9902C349.922 13.4727 350.07 13.8809 350.404 14.2148C350.738 14.5488 351.146 14.6973 351.629 14.6973C352.111 14.6973 352.501 14.5488 352.835 14.2148C353.169 13.8809 353.336 13.4727 353.336 12.9902C353.336 12.5078 353.169 12.1182 352.835 11.7842C352.501 11.4502 352.111 11.2832 351.629 11.2832C351.146 11.2832 350.738 11.4502 350.404 11.7842C350.07 12.1182 349.922 12.5078 349.922 12.9902ZM346.693 37H349.347V18.7607H346.693V37Z" fill="#323264"/>
<path fill-rule="evenodd" clip-rule="evenodd" d="M384.258 27.1452H372.329L377.585 11.1537L383.532 11.1888L380.079 21.7351L386.008 21.7386L384.258 27.1452Z" fill="url(#paint0_linear_90_4622)"/>
<path fill-rule="evenodd" clip-rule="evenodd" d="M359.904 47.9044H354C354 47.9044 364.754 14.794 367.266 7.06476C368.441 3.44844 371.809 1 375.609 1H386.165C389.348 1 392.005 2.34505 393.657 4.61793C395.307 6.89094 395.776 9.79933 394.813 12.7664C393.849 15.7334 392.939 18.5342 392.105 21.1004C390.98 24.5654 387.863 26.953 384.259 27.1471C384.259 27.1471 384.24 27.1411 389.29 11.5924C389.736 10.2203 389.573 8.8772 388.873 7.91395C388.173 6.95083 386.993 6.3808 385.432 6.3808H376.374C374.596 6.3808 373.02 7.52656 372.47 9.21887L359.904 47.9044Z" fill="#F0145A"/>
<path fill-rule="evenodd" clip-rule="evenodd" d="M175.227 1H181.071L165.845 47.8434H160L175.227 1Z" fill="#F0145A"/>
</g>
<defs>
<linearGradient id="paint0_linear_90_4622" x1="372.328" y1="24.0823" x2="385.6" y2="31.0167" gradientUnits="userSpaceOnUse">
<stop stop-color="#F0145A"/>
<stop offset="1" stop-color="#693264"/>
</linearGradient>
<clipPath id="clip0_90_4622">
<rect width="444" height="63" fill="white"/>
</clipPath>
</defs>
</svg>
